a0000-p0000.ufo
<glyph name="comma" format="1">
  <advance width="171"/>
  <unicode hex="002C"/>
  <outline>
    <contour>
      <point x="52" y="-155" type="line"/>
      <point x="108" y="60" type="line"/>
      <point x="70" y="60" type="line"/>
      <point x="23" y="-145" type="line"/>
    </contour>
  </outline>
</glyph>
<glyph name="four" format="1">
  <advance width="461"/>
  <unicode hex="0034"/>
  <outline>
    <contour>
      <point x="41" y="192" type="line"/>
      <point x="434" y="192" type="line"/>
      <point x="434" y="224" type="line"/>
      <point x="65" y="224" type="line"/>
      <point x="65" y="230" type="line"/>
      <point x="300" y="735" type="line"/>
      <point x="300" y="740" type="line"/>
      <point x="278" y="750" type="line"/>
      <point x="271" y="750" type="line"/>
      <point x="22" y="211" type="line"/>
      <point x="22" y="207" type="line"/>
    </contour>
    <contour>
      <point x="324" y="0" type="line"/>
      <point x="358" y="0" type="line"/>
      <point x="358" y="529" type="line"/>
      <point x="334" y="529" type="line"/>
      <point x="324" y="249" type="line"/>
    </contour>
  </outline>
</glyph>
<glyph name="five" format="1">
  <advance width="379"/>
  <unicode hex="0035"/>
  <outline>
    <contour>
      <point x="145" y="-13" type="curve" smooth="yes"/>
      <point x="267" y="-13"/>
      <point x="336" y="68"/>
      <point x="336" y="209" type="curve" smooth="yes"/>
      <point x="336" y="366"/>
      <point x="269" y="422"/>
      <point x="83" y="422" type="curve"/>
      <point x="92" y="397" type="line"/>
      <point x="116" y="722" type="line"/>
      <point x="100" y="706" type="line"/>
      <point x="315" y="706" type="line"/>
      <point x="315" y="740" type="line"/>
      <point x="83" y="740" type="line"/>
      <point x="58" y="392" type="line"/>
      <point x="62" y="388" type="line"/>
      <point x="110" y="388" type="line" smooth="yes"/>
      <point x="244" y="388"/>
      <point x="300" y="336"/>
      <point x="300" y="209" type="curve" smooth="yes"/>
      <point x="300" y="89"/>
      <point x="244" y="21"/>
      <point x="145" y="21" type="curve" smooth="yes"/>
      <point x="120" y="21"/>
      <point x="93" y="25"/>
      <point x="58" y="33" type="curve"/>
      <point x="48" y="33" type="line"/>
      <point x="48" y="2" type="line"/>
      <point x="82" y="-8"/>
      <point x="114" y="-13"/>
    </contour>
  </outline>
</glyph>
<glyph name="question" format="1">
  <advance width="385"/>
  <unicode hex="003F"/>
  <outline>
    <contour>
      <point x="122" y="153" type="line"/>
      <point x="156" y="153" type="line"/>
      <point x="156" y="173" type="line"/>
      <point x="155" y="340" type="line"/>
      <point x="237" y="365"/>
      <point x="353" y="408"/>
      <point x="353" y="556" type="curve" smooth="yes"/>
      <point x="353" y="708"/>
      <point x="253" y="752"/>
      <point x="164" y="752" type="curve" smooth="yes"/>
      <point x="116" y="752"/>
      <point x="67" y="739"/>
      <point x="27" y="722" type="curve"/>
      <point x="40" y="692" type="line"/>
      <point x="80" y="707"/>
      <point x="122" y="718"/>
      <point x="163" y="718" type="curve" smooth="yes"/>
      <point x="236" y="718"/>
      <point x="319" y="680"/>
      <point x="319" y="556" type="curve" smooth="yes"/>
      <point x="319" y="424"/>
      <point x="198" y="389"/>
      <point x="121" y="368" type="curve"/>
      <point x="122" y="173" type="line"/>
    </contour>
    <contour>
      <point x="140" y="2" type="curve" smooth="yes"/>
      <point x="158" y="2"/>
      <point x="170" y="13"/>
      <point x="170" y="31" type="curve" smooth="yes"/>
      <point x="170" y="49"/>
      <point x="158" y="61"/>
      <point x="140" y="61" type="curve" smooth="yes"/>
      <point x="122" y="61"/>
      <point x="111" y="50"/>
      <point x="111" y="31" type="curve" smooth="yes"/>
      <point x="111" y="13"/>
      <point x="122" y="2"/>
    </contour>
  </outline>
</glyph>
<glyph name="B" format="1">
  <advance width="538"/>
  <unicode hex="0042"/>
  <outline>
    <contour>
      <point x="270" y="-10" type="curve" smooth="yes"/>
      <point x="418" y="-10"/>
      <point x="494" y="57"/>
      <point x="494" y="191" type="curve" smooth="yes"/>
      <point x="494" y="294"/>
      <point x="438" y="364"/>
      <point x="349" y="376" type="curve"/>
      <point x="349" y="380" type="line"/>
      <point x="426" y="394"/>
      <point x="470" y="457"/>
      <point x="470" y="554" type="curve" smooth="yes"/>
      <point x="470" y="687"/>
      <point x="399" y="750"/>
      <point x="251" y="750" type="curve" smooth="yes"/>
      <point x="203" y="750"/>
      <point x="169" y="747"/>
      <point x="81" y="737" type="curve"/>
      <point x="81" y="5" type="line"/>
      <point x="120" y="-3"/>
      <point x="212" y="-10"/>
    </contour>
    <contour>
      <point x="270" y="20" type="curve" smooth="yes"/>
      <point x="220" y="20"/>
      <point x="136" y="26"/>
      <point x="115" y="31" type="curve"/>
      <point x="115" y="358" type="line"/>
      <point x="246" y="358" type="line" smooth="yes"/>
      <point x="397" y="358"/>
      <point x="458" y="309"/>
      <point x="458" y="191" type="curve" smooth="yes"/>
      <point x="458" y="76"/>
      <point x="396" y="21"/>
    </contour>
    <contour>
      <point x="115" y="392" type="line"/>
      <point x="115" y="709" type="line"/>
      <point x="163" y="715"/>
      <point x="202" y="718"/>
      <point x="251" y="718" type="curve" smooth="yes"/>
      <point x="375" y="718"/>
      <point x="434" y="665"/>
      <point x="434" y="554" type="curve" smooth="yes"/>
      <point x="434" y="435"/>
      <point x="384" y="392"/>
      <point x="245" y="392" type="curve" smooth="yes"/>
    </contour>
  </outline>
</glyph>
<glyph name="I" format="1">
  <advance width="196"/>
  <unicode hex="0049"/>
  <outline>
    <contour>
      <point x="115" y="0" type="move" name="ogonek"/>
    </contour>
    <contour>
      <point x="101" y="760" type="move" name="topUC"/>
    </contour>
    <contour>
      <point x="101" y="0" type="move" name="bottom"/>
    </contour>
    <contour>
      <point x="81" y="0" type="line"/>
      <point x="115" y="0" type="line"/>
      <point x="115" y="740" type="line"/>
      <point x="81" y="740" type="line"/>
    </contour>
  </outline>
</glyph>
<glyph name="K" format="1">
  <advance width="535"/>
  <unicode hex="004B"/>
  <outline>
    <contour>
      <point x="266" y="0" type="move" name="bottom"/>
    </contour>
    <contour>
      <point x="81" y="0" type="line"/>
      <point x="115" y="0" type="line"/>
      <point x="115" y="359" type="line"/>
      <point x="212" y="359" type="line"/>
      <point x="488" y="0" type="line"/>
      <point x="529" y="0" type="line"/>
      <point x="258" y="353" type="line"/>
      <point x="232" y="376" type="line"/>
      <point x="232" y="380" type="line"/>
      <point x="256" y="405" type="line"/>
      <point x="509" y="740" type="line"/>
      <point x="466" y="740" type="line"/>
      <point x="204" y="393" type="line"/>
      <point x="115" y="393" type="line"/>
      <point x="115" y="740" type="line"/>
      <point x="81" y="740" type="line"/>
    </contour>
  </outline>
</glyph>
<glyph name="L" format="1">
  <advance width="386"/>
  <unicode hex="004C"/>
  <outline>
    <contour>
      <point x="114" y="760" type="move" name="topUC"/>
    </contour>
    <contour>
      <point x="284" y="370" type="move" name="periodcentered"/>
    </contour>
    <contour>
      <point x="332" y="740" type="move" name="caronalt"/>
    </contour>
    <contour>
      <point x="228" y="0" type="move" name="bottom"/>
    </contour>
    <contour>
      <point x="81" y="0" type="line"/>
      <point x="374" y="0" type="line"/>
      <point x="374" y="34" type="line"/>
      <point x="115" y="34" type="line"/>
      <point x="115" y="740" type="line"/>
      <point x="81" y="740" type="line"/>
    </contour>
  </outline>
</glyph>
<glyph name="T" format="1">
  <advance width="447"/>
  <unicode hex="0054"/>
  <outline>
    <contour>
      <point x="225" y="760" type="move" name="topUC"/>
    </contour>
    <contour>
      <point x="226" y="0" type="move" name="bottom"/>
    </contour>
    <contour>
      <point x="206" y="0" type="line"/>
      <point x="240" y="0" type="line"/>
      <point x="240" y="706" type="line"/>
      <point x="434" y="706" type="line"/>
      <point x="434" y="740" type="line"/>
      <point x="12" y="740" type="line"/>
      <point x="12" y="706" type="line"/>
      <point x="206" y="706" type="line"/>
    </contour>
  </outline>
</glyph>
<glyph name="bracketright" format="1">
  <advance width="269"/>
  <unicode hex="005D"/>
  <outline>
    <contour>
      <point x="192" y="-160" type="line"/>
      <point x="192" y="868" type="line"/>
      <point x="29" y="868" type="line"/>
      <point x="29" y="834" type="line"/>
      <point x="158" y="834" type="line"/>
      <point x="158" y="-126" type="line"/>
      <point x="29" y="-126" type="line"/>
      <point x="29" y="-160" type="line"/>
    </contour>
  </outline>
</glyph>
<glyph name="f" format="1">
  <advance width="236"/>
  <unicode hex="0066"/>
  <outline>
    <contour>
      <point x="92" y="0" type="line"/>
      <point x="126" y="0" type="line"/>
      <point x="126" y="509" type="line"/>
      <point x="223" y="509" type="line"/>
      <point x="223" y="540" type="line"/>
      <point x="126" y="540" type="line"/>
      <point x="126" y="585" type="line" smooth="yes"/>
      <point x="126" y="728"/>
      <point x="149" y="765"/>
      <point x="246" y="777" type="curve"/>
      <point x="246" y="808" type="line"/>
      <point x="126" y="794"/>
      <point x="92" y="745"/>
      <point x="92" y="585" type="curve" smooth="yes"/>
      <point x="92" y="540" type="line"/>
      <point x="16" y="540" type="line"/>
      <point x="16" y="509" type="line"/>
      <point x="92" y="509" type="line"/>
    </contour>
  </outline>
</glyph>
<glyph name="h" format="1">
  <advance width="454"/>
  <unicode hex="0068"/>
  <outline>
    <contour>
      <point x="83" y="808" type="move" name="top"/>
    </contour>
    <contour>
      <point x="233" y="0" type="move" name="bottom"/>
    </contour>
    <contour>
      <point x="69" y="0" type="line"/>
      <point x="103" y="0" type="line"/>
      <point x="103" y="449" type="line"/>
      <point x="166" y="493"/>
      <point x="225" y="516"/>
      <point x="277" y="516" type="curve" smooth="yes"/>
      <point x="332" y="516"/>
      <point x="354" y="486"/>
      <point x="354" y="409" type="curve" smooth="yes"/>
      <point x="354" y="0" type="line"/>
      <point x="388" y="0" type="line"/>
      <point x="388" y="409" type="line" smooth="yes"/>
      <point x="388" y="515"/>
      <point x="361" y="550"/>
      <point x="277" y="550" type="curve" smooth="yes"/>
      <point x="227" y="550"/>
      <point x="165" y="525"/>
      <point x="107" y="482" type="curve"/>
      <point x="103" y="482" type="line"/>
      <point x="103" y="808" type="line"/>
      <point x="69" y="808" type="line"/>
    </contour>
  </outline>
</glyph>
<glyph name="m" format="1">
  <advance width="733"/>
  <unicode hex="006D"/>
  <outline>
    <contour>
      <point x="69" y="0" type="line"/>
      <point x="103" y="0" type="line"/>
      <point x="103" y="451" type="line"/>
      <point x="163" y="494"/>
      <point x="222" y="516"/>
      <point x="274" y="516" type="curve" smooth="yes"/>
      <point x="329" y="516"/>
      <point x="351" y="486"/>
      <point x="351" y="409" type="curve" smooth="yes"/>
      <point x="351" y="0" type="line"/>
      <point x="385" y="0" type="line"/>
      <point x="385" y="451" type="line"/>
      <point x="446" y="493"/>
      <point x="505" y="516"/>
      <point x="556" y="516" type="curve" smooth="yes"/>
      <point x="611" y="516"/>
      <point x="633" y="486"/>
      <point x="633" y="409" type="curve" smooth="yes"/>
      <point x="633" y="0" type="line"/>
      <point x="667" y="0" type="line"/>
      <point x="667" y="409" type="line" smooth="yes"/>
      <point x="667" y="515"/>
      <point x="640" y="550"/>
      <point x="556" y="550" type="curve" smooth="yes"/>
      <point x="504" y="550"/>
      <point x="441" y="525"/>
      <point x="382" y="480" type="curve"/>
      <point x="378" y="480" type="line"/>
      <point x="366" y="530"/>
      <point x="336" y="550"/>
      <point x="274" y="550" type="curve" smooth="yes"/>
      <point x="224" y="550"/>
      <point x="162" y="525"/>
      <point x="104" y="482" type="curve"/>
      <point x="101" y="482" type="line"/>
      <point x="97" y="540" type="line"/>
      <point x="69" y="540" type="line"/>
    </contour>
  </outline>
</glyph>
<glyph name="s" format="1">
  <advance width="345"/>
  <unicode hex="0073"/>
  <outline>
    <contour>
      <point x="173" y="600" type="move" name="top"/>
    </contour>
    <contour>
      <point x="173" y="0" type="move" name="bottom"/>
    </contour>
    <contour>
      <point x="166" y="-12" type="curve" smooth="yes"/>
      <point x="248" y="-12"/>
      <point x="309" y="44"/>
      <point x="309" y="138" type="curve" smooth="yes"/>
      <point x="309" y="223"/>
      <point x="276" y="265"/>
      <point x="187" y="294" type="curve" smooth="yes"/>
      <point x="126" y="314"/>
      <point x="82" y="329"/>
      <point x="82" y="411" type="curve" smooth="yes"/>
      <point x="82" y="480"/>
      <point x="123" y="518"/>
      <point x="193" y="518" type="curve" smooth="yes"/>
      <point x="219" y="518"/>
      <point x="252" y="513"/>
      <point x="292" y="502" type="curve"/>
      <point x="292" y="538" type="line"/>
      <point x="240" y="550"/>
      <point x="221" y="553"/>
      <point x="192" y="553" type="curve" smooth="yes"/>
      <point x="103" y="553"/>
      <point x="45" y="497"/>
      <point x="45" y="411" type="curve" smooth="yes"/>
      <point x="45" y="296"/>
      <point x="114" y="277"/>
      <point x="176" y="259" type="curve" smooth="yes"/>
      <point x="244" y="239"/>
      <point x="271" y="202"/>
      <point x="271" y="138" type="curve" smooth="yes"/>
      <point x="271" y="67"/>
      <point x="231" y="23"/>
      <point x="157" y="23" type="curve" smooth="yes"/>
      <point x="125" y="23"/>
      <point x="81" y="31"/>
      <point x="39" y="44" type="curve"/>
      <point x="39" y="7" type="line"/>
      <point x="101" y="-7"/>
      <point x="133" y="-12"/>
    </contour>
  </outline>
</glyph>
<glyph name="z" format="1">
  <advance width="378"/>
  <unicode hex="007A"/>
  <outline>
    <contour>
      <point x="199" y="600" type="move" name="top"/>
    </contour>
    <contour>
      <point x="191" y="0" type="move" name="bottom"/>
    </contour>
    <contour>
      <point x="30" y="0" type="line"/>
      <point x="348" y="0" type="line"/>
      <point x="348" y="32" type="line"/>
      <point x="76" y="32" type="line"/>
      <point x="76" y="36" type="line"/>
      <point x="338" y="520" type="line"/>
      <point x="338" y="540" type="line"/>
      <point x="40" y="540" type="line"/>
      <point x="40" y="508" type="line"/>
      <point x="290" y="508" type="line"/>
      <point x="290" y="504" type="line"/>
      <point x="30" y="21" type="line"/>
    </contour>
  </outline>
</glyph>
<glyph name="braceright" format="1">
  <advance width="333"/>
  <unicode hex="007D"/>
  <outline>
    <contour>
      <point x="314" y="373" type="line"/>
      <point x="263" y="373"/>
      <point x="232" y="416"/>
      <point x="232" y="486" type="curve" smooth="yes"/>
      <point x="232" y="766" type="line" smooth="yes"/>
      <point x="232" y="846"/>
      <point x="210" y="868"/>
      <point x="129" y="868" type="curve" smooth="yes"/>
      <point x="102" y="868"/>
      <point x="40" y="865"/>
      <point x="31" y="863" type="curve"/>
      <point x="31" y="834" type="line"/>
      <point x="138" y="834" type="line" smooth="yes"/>
      <point x="184" y="834"/>
      <point x="198" y="821"/>
      <point x="198" y="776" type="curve" smooth="yes"/>
      <point x="198" y="481" type="line" smooth="yes"/>
      <point x="198" y="423"/>
      <point x="219" y="377"/>
      <point x="251" y="360" type="curve"/>
      <point x="219" y="343"/>
      <point x="198" y="296"/>
      <point x="198" y="239" type="curve" smooth="yes"/>
      <point x="198" y="-56" type="line" smooth="yes"/>
      <point x="198" y="-101"/>
      <point x="184" y="-114"/>
      <point x="138" y="-114" type="curve" smooth="yes"/>
      <point x="31" y="-114" type="line"/>
      <point x="31" y="-143" type="line"/>
      <point x="40" y="-145"/>
      <point x="102" y="-148"/>
      <point x="129" y="-148" type="curve" smooth="yes"/>
      <point x="210" y="-148"/>
      <point x="232" y="-126"/>
      <point x="232" y="-46" type="curve" smooth="yes"/>
      <point x="232" y="234" type="line" smooth="yes"/>
      <point x="232" y="304"/>
      <point x="263" y="347"/>
      <point x="314" y="347" type="curve"/>
    </contour>
  </outline>
</glyph>
<glyph name="asciitilde" format="1">
  <advance width="480"/>
  <unicode hex="007E"/>
  <outline>
    <contour>
      <point x="88" y="268" type="line"/>
      <point x="127" y="319"/>
      <point x="151" y="337"/>
      <point x="179" y="337" type="curve" smooth="yes"/>
      <point x="217" y="337"/>
      <point x="245" y="262"/>
      <point x="309" y="262" type="curve" smooth="yes"/>
      <point x="352" y="262"/>
      <point x="400" y="300"/>
      <point x="418" y="349" type="curve"/>
      <point x="386" y="361" type="line"/>
      <point x="374" y="325"/>
      <point x="339" y="296"/>
      <point x="309" y="296" type="curve" smooth="yes"/>
      <point x="260" y="296"/>
      <point x="236" y="371"/>
      <point x="179" y="371" type="curve" smooth="yes"/>
      <point x="139" y="371"/>
      <point x="111" y="352"/>
      <point x="62" y="290" type="curve"/>
    </contour>
  </outline>
</glyph>
<glyph name="cent" format="1">
  <advance width="382"/>
  <unicode hex="00A2"/>
  <outline>
    <contour>
      <point x="215" y="-119" type="line"/>
      <point x="249" y="-119" type="line"/>
      <point x="249" y="10" type="line"/>
      <point x="215" y="10" type="line"/>
    </contour>
    <contour>
      <point x="215" y="532" type="line"/>
      <point x="249" y="532" type="line"/>
      <point x="249" y="661" type="line"/>
      <point x="215" y="661" type="line"/>
    </contour>
    <component base="c" xOffset="1"/>
  </outline>
</glyph>
<glyph name="ordfeminine" format="1">
  <advance width="352"/>
  <unicode hex="00AA"/>
  <outline>
    <contour>
      <point x="135" y="348" type="curve" smooth="yes"/>
      <point x="168" y="348"/>
      <point x="200" y="363"/>
      <point x="256" y="399" type="curve"/>
      <point x="260" y="399" type="line"/>
      <point x="263" y="352" type="line"/>
      <point x="290" y="352" type="line"/>
      <point x="290" y="622" type="line" smooth="yes"/>
      <point x="290" y="708"/>
      <point x="255" y="746"/>
      <point x="175" y="746" type="curve" smooth="yes"/>
      <point x="155" y="746"/>
      <point x="121" y="743"/>
      <point x="72" y="735" type="curve"/>
      <point x="77" y="701" type="line"/>
      <point x="125" y="710"/>
      <point x="146" y="711"/>
      <point x="161" y="711" type="curve" smooth="yes"/>
      <point x="233" y="711"/>
      <point x="256" y="684"/>
      <point x="256" y="620" type="curve" smooth="yes"/>
      <point x="256" y="426" type="line"/>
      <point x="199" y="392"/>
      <point x="169" y="380"/>
      <point x="139" y="380" type="curve" smooth="yes"/>
      <point x="96" y="380"/>
      <point x="74" y="404"/>
      <point x="74" y="450" type="curve" smooth="yes"/>
      <point x="74" y="506"/>
      <point x="108" y="528"/>
      <point x="212" y="537" type="curve" smooth="yes"/>
      <point x="279" y="541" type="line"/>
      <point x="275" y="576" type="line"/>
      <point x="174" y="564" type="line" smooth="yes"/>
      <point x="89" y="554"/>
      <point x="44" y="510"/>
      <point x="44" y="446" type="curve" smooth="yes"/>
      <point x="44" y="388"/>
      <point x="80" y="348"/>
    </contour>
  </outline>
</glyph>
<glyph name="registered" format="1">
  <advance width="705"/>
  <unicode hex="00AE"/>
  <outline>
    <contour>
      <point x="239" y="276" type="line"/>
      <point x="273" y="276" type="line"/>
      <point x="273" y="411" type="line"/>
      <point x="373" y="409" type="line"/>
      <point x="462" y="276" type="line"/>
      <point x="504" y="276" type="line"/>
      <point x="411" y="414" type="line"/>
      <point x="412" y="418" type="line"/>
      <point x="462" y="433"/>
      <point x="490" y="468"/>
      <point x="490" y="520" type="curve" smooth="yes"/>
      <point x="490" y="596"/>
      <point x="440" y="630"/>
      <point x="331" y="630" type="curve" smooth="yes"/>
      <point x="306" y="630"/>
      <point x="275" y="627"/>
      <point x="239" y="622" type="curve"/>
    </contour>
    <contour>
      <point x="336" y="443" type="curve" smooth="yes"/>
      <point x="313" y="443"/>
      <point x="288" y="444"/>
      <point x="273" y="445" type="curve"/>
      <point x="273" y="591" type="line"/>
      <point x="300" y="594"/>
      <point x="317" y="596"/>
      <point x="335" y="596" type="curve" smooth="yes"/>
      <point x="420" y="596"/>
      <point x="456" y="574"/>
      <point x="456" y="520" type="curve" smooth="yes"/>
      <point x="456" y="468"/>
      <point x="414" y="443"/>
    </contour>
    <contour>
      <point x="352" y="138" type="curve" smooth="yes"/>
      <point x="529" y="138"/>
      <point x="660" y="268"/>
      <point x="660" y="445" type="curve" smooth="yes"/>
      <point x="660" y="622"/>
      <point x="529" y="753"/>
      <point x="352" y="753" type="curve" smooth="yes"/>
      <point x="175" y="753"/>
      <point x="45" y="622"/>
      <point x="45" y="445" type="curve" smooth="yes"/>
      <point x="45" y="268"/>
      <point x="175" y="138"/>
    </contour>
    <contour>
      <point x="352" y="172" type="curve" smooth="yes"/>
      <point x="194" y="172"/>
      <point x="79" y="287"/>
      <point x="79" y="445" type="curve" smooth="yes"/>
      <point x="79" y="603"/>
      <point x="194" y="719"/>
      <point x="352" y="719" type="curve" smooth="yes"/>
      <point x="510" y="719"/>
      <point x="626" y="603"/>
      <point x="626" y="445" type="curve" smooth="yes"/>
      <point x="626" y="287"/>
      <point x="510" y="172"/>
    </contour>
  </outline>
</glyph>
<glyph name="threesuperior" format="1">
  <advance width="302"/>
  <unicode hex="00B3"/>
  <outline>
    <contour>
      <point x="116" y="295" type="curve" smooth="yes"/>
      <point x="206" y="295"/>
      <point x="261" y="349"/>
      <point x="261" y="438" type="curve" smooth="yes"/>
      <point x="261" y="516"/>
      <point x="225" y="565"/>
      <point x="154" y="585" type="curve"/>
      <point x="212" y="604"/>
      <point x="247" y="651"/>
      <point x="247" y="714" type="curve" smooth="yes"/>
      <point x="247" y="801"/>
      <point x="198" y="854"/>
      <point x="119" y="854" type="curve" smooth="yes"/>
      <point x="96" y="854"/>
      <point x="69" y="849"/>
      <point x="37" y="841" type="curve"/>
      <point x="46" y="811" type="line"/>
      <point x="57" y="811" type="line"/>
      <point x="80" y="817"/>
      <point x="100" y="820"/>
      <point x="117" y="820" type="curve" smooth="yes"/>
      <point x="179" y="820"/>
      <point x="213" y="782"/>
      <point x="213" y="714" type="curve" smooth="yes"/>
      <point x="213" y="645"/>
      <point x="166" y="601"/>
      <point x="92" y="601" type="curve" smooth="yes"/>
      <point x="78" y="601" type="line"/>
      <point x="78" y="567" type="line"/>
      <point x="91" y="567" type="line" smooth="yes"/>
      <point x="179" y="567"/>
      <point x="227" y="522"/>
      <point x="227" y="438" type="curve" smooth="yes"/>
      <point x="227" y="370"/>
      <point x="185" y="328"/>
      <point x="116" y="328" type="curve" smooth="yes"/>
      <point x="94" y="328"/>
      <point x="72" y="331"/>
      <point x="53" y="336" type="curve"/>
      <point x="42" y="336" type="line"/>
      <point x="42" y="306" type="line"/>
      <point x="67" y="299"/>
      <point x="94" y="295"/>
    </contour>
  </outline>
</glyph>
<glyph name="mu" format="1">
  <advance width="473"/>
  <unicode hex="00B5"/>
  <outline>
    <contour>
      <point x="196" y="-10" type="curve" smooth="yes"/>
      <point x="241" y="-10"/>
      <point x="292" y="11"/>
      <point x="356" y="58" type="curve"/>
      <point x="360" y="58" type="line"/>
      <point x="364" y="0" type="line"/>
      <point x="394" y="0" type="line"/>
      <point x="394" y="540" type="line"/>
      <point x="360" y="540" type="line"/>
      <point x="360" y="91" type="line"/>
      <point x="293" y="44"/>
      <point x="245" y="24"/>
      <point x="196" y="24" type="curve" smooth="yes"/>
      <point x="137" y="24"/>
      <point x="109" y="59"/>
      <point x="109" y="131" type="curve" smooth="yes"/>
      <point x="109" y="540" type="line"/>
      <point x="75" y="540" type="line"/>
      <point x="75" y="131" type="line" smooth="yes"/>
      <point x="75" y="29"/>
      <point x="109" y="-10"/>
    </contour>
    <contour>
      <point x="75" y="-220" type="line"/>
      <point x="109" y="-220" type="line"/>
      <point x="109" y="220" type="line"/>
      <point x="75" y="220" type="line"/>
    </contour>
  </outline>
</glyph>
<glyph name="Oslash" format="1">
  <advance width="599"/>
  <unicode hex="00D8"/>
  <outline>
    <contour>
      <point x="297" y="760" type="move" name="topUC"/>
    </contour>
    <contour>
      <point x="300" y="-10" type="curve" smooth="yes"/>
      <point x="462" y="-10"/>
      <point x="544" y="117"/>
      <point x="544" y="369" type="curve" smooth="yes"/>
      <point x="544" y="624"/>
      <point x="463" y="750"/>
      <point x="300" y="750" type="curve" smooth="yes"/>
      <point x="136" y="750"/>
      <point x="56" y="625"/>
      <point x="56" y="369" type="curve" smooth="yes"/>
      <point x="56" y="115"/>
      <point x="136" y="-10"/>
    </contour>
    <contour>
      <point x="300" y="24" type="curve" smooth="yes"/>
      <point x="154" y="24"/>
      <point x="90" y="129"/>
      <point x="90" y="369" type="curve" smooth="yes"/>
      <point x="90" y="609"/>
      <point x="155" y="716"/>
      <point x="300" y="716" type="curve" smooth="yes"/>
      <point x="442" y="716"/>
      <point x="510" y="604"/>
      <point x="510" y="369" type="curve" smooth="yes"/>
      <point x="510" y="131"/>
      <point x="445" y="24"/>
    </contour>
    <contour>
      <point x="25" y="0" type="line"/>
      <point x="65" y="0" type="line"/>
      <point x="575" y="740" type="line"/>
      <point x="536" y="740" type="line"/>
    </contour>
  </outline>
</glyph>
<glyph name="Thorn" format="1">
  <advance width="501"/>
  <unicode hex="00DE"/>
  <outline>
    <contour>
      <point x="205" y="122" type="curve" smooth="yes"/>
      <point x="384" y="122"/>
      <point x="464" y="199"/>
      <point x="464" y="373" type="curve" smooth="yes"/>
      <point x="464" y="544"/>
      <point x="387" y="622"/>
      <point x="221" y="622" type="curve" smooth="yes"/>
      <point x="179" y="622"/>
      <point x="134" y="616"/>
      <point x="81" y="605" type="curve"/>
      <point x="81" y="132" type="line"/>
      <point x="128" y="125"/>
      <point x="169" y="122"/>
    </contour>
    <contour>
      <point x="216" y="156" type="curve" smooth="yes"/>
      <point x="184" y="156"/>
      <point x="150" y="159"/>
      <point x="115" y="163" type="curve"/>
      <point x="115" y="577" type="line"/>
      <point x="157" y="584"/>
      <point x="195" y="588"/>
      <point x="227" y="588" type="curve" smooth="yes"/>
      <point x="365" y="588"/>
      <point x="430" y="520"/>
      <point x="430" y="373" type="curve" smooth="yes"/>
      <point x="430" y="224"/>
      <point x="362" y="156"/>
    </contour>
    <contour>
      <point x="81" y="0" type="line"/>
      <point x="115" y="0" type="line"/>
      <point x="115" y="740" type="line"/>
      <point x="81" y="740" type="line"/>
    </contour>
  </outline>
</glyph>
<glyph name="icircumflex" format="1">
  <advance width="176"/>
  <unicode hex="00EE"/>
  <outline>
    <contour>
      <point x="-33" y="641" type="line"/>
      <point x="88" y="713" type="line"/>
      <point x="209" y="641" type="line"/>
      <point x="209" y="682" type="line"/>
      <point x="88" y="754" type="line"/>
      <point x="-33" y="682" type="line"/>
    </contour>
    <component base="dotlessi" xOffset="1"/>
  </outline>
</glyph>
<glyph name="divide" format="1">
  <advance width="488"/>
  <unicode hex="00F7"/>
  <outline>
    <contour>
      <point x="247" y="189" type="curve" smooth="yes"/>
      <point x="266" y="189"/>
      <point x="279" y="201"/>
      <point x="279" y="220" type="curve" smooth="yes"/>
      <point x="279" y="239"/>
      <point x="266" y="252"/>
      <point x="247" y="252" type="curve" smooth="yes"/>
      <point x="228" y="252"/>
      <point x="216" y="240"/>
      <point x="216" y="220" type="curve" smooth="yes"/>
      <point x="216" y="201"/>
      <point x="228" y="189"/>
    </contour>
    <contour>
      <point x="62" y="353" type="line"/>
      <point x="426" y="353" type="line"/>
      <point x="426" y="387" type="line"/>
      <point x="62" y="387" type="line"/>
    </contour>
    <contour>
      <point x="247" y="480" type="curve" smooth="yes"/>
      <point x="266" y="480"/>
      <point x="279" y="492"/>
      <point x="279" y="511" type="curve" smooth="yes"/>
      <point x="279" y="530"/>
      <point x="266" y="543"/>
      <point x="247" y="543" type="curve" smooth="yes"/>
      <point x="228" y="543"/>
      <point x="216" y="531"/>
      <point x="216" y="511" type="curve" smooth="yes"/>
      <point x="216" y="492"/>
      <point x="228" y="480"/>
    </contour>
  </outline>
</glyph>
<glyph name="hbar" format="1">
  <advance width="454"/>
  <unicode hex="0127"/>
  <outline>
    <contour>
      <point x="-21" y="660" type="line"/>
      <point x="240" y="660" type="line"/>
      <point x="240" y="683" type="line"/>
      <point x="-21" y="683" type="line"/>
    </contour>
    <component base="h"/>
  </outline>
</glyph>
<glyph name="eng" format="1">
  <advance width="453"/>
  <unicode hex="014B"/>
  <outline>
    <contour>
      <point x="312" y="-214" type="line"/>
      <point x="355" y="-144"/>
      <point x="388" y="-7"/>
      <point x="388" y="96" type="curve" smooth="yes"/>
      <point x="388" y="409" type="line" smooth="yes"/>
      <point x="388" y="515"/>
      <point x="361" y="550"/>
      <point x="277" y="550" type="curve" smooth="yes"/>
      <point x="227" y="550"/>
      <point x="165" y="525"/>
      <point x="107" y="482" type="curve"/>
      <point x="103" y="482" type="line"/>
      <point x="99" y="540" type="line"/>
      <point x="69" y="540" type="line"/>
      <point x="69" y="0" type="line"/>
      <point x="103" y="0" type="line"/>
      <point x="103" y="449" type="line"/>
      <point x="166" y="493"/>
      <point x="225" y="516"/>
      <point x="277" y="516" type="curve" smooth="yes"/>
      <point x="332" y="516"/>
      <point x="354" y="486"/>
      <point x="354" y="409" type="curve" smooth="yes"/>
      <point x="354" y="95" type="line" smooth="yes"/>
      <point x="354" y="6"/>
      <point x="326" y="-114"/>
      <point x="285" y="-200" type="curve"/>
    </contour>
  </outline>
</glyph>
<glyph name="OE" format="1">
  <advance width="739"/>
  <unicode hex="0152"/>
  <outline>
    <contour>
      <point x="294" y="-2" type="curve" smooth="yes"/>
      <point x="316" y="-2"/>
      <point x="356" y="-1"/>
      <point x="375" y="0" type="curve"/>
      <point x="698" y="0" type="line"/>
      <point x="698" y="34" type="line"/>
      <point x="405" y="34" type="line"/>
      <point x="405" y="359" type="line"/>
      <point x="656" y="359" type="line"/>
      <point x="656" y="393" type="line"/>
      <point x="405" y="393" type="line"/>
      <point x="405" y="706" type="line"/>
      <point x="689" y="706" type="line"/>
      <point x="689" y="740" type="line"/>
      <point x="375" y="740" type="line"/>
      <point x="356" y="741"/>
      <point x="316" y="742"/>
      <point x="294" y="742" type="curve" smooth="yes"/>
      <point x="130" y="742"/>
      <point x="50" y="619"/>
      <point x="50" y="369" type="curve" smooth="yes"/>
      <point x="50" y="121"/>
      <point x="130" y="-2"/>
    </contour>
    <contour>
      <point x="294" y="32" type="curve" smooth="yes"/>
      <point x="148" y="32"/>
      <point x="84" y="135"/>
      <point x="84" y="369" type="curve" smooth="yes"/>
      <point x="84" y="603"/>
      <point x="149" y="708"/>
      <point x="294" y="708" type="curve" smooth="yes"/>
      <point x="315" y="708"/>
      <point x="352" y="707"/>
      <point x="371" y="705" type="curve"/>
      <point x="371" y="34" type="line"/>
      <point x="352" y="33"/>
      <point x="314" y="32"/>
    </contour>
  </outline>
</glyph>
<glyph name="Tbar" format="1">
  <advance width="457"/>
  <unicode hex="0166"/>
  <outline>
    <contour>
      <point x="103" y="375" type="line"/>
      <point x="365" y="375" type="line"/>
      <point x="365" y="401" type="line"/>
      <point x="103" y="401" type="line"/>
    </contour>
    <component base="T" xOffset="4"/>
  </outline>
</glyph>
<glyph name="schwa" format="1">
  <advance width="424"/>
  <unicode hex="0259"/>
  <outline>
    <contour>
      <point x="185" y="549" type="curve" smooth="yes"/>
      <point x="141" y="549"/>
      <point x="98" y="538"/>
      <point x="62" y="518" type="curve"/>
      <point x="67" y="483" type="line"/>
      <point x="109" y="506"/>
      <point x="143" y="515"/>
      <point x="185" y="515" type="curve" smooth="yes"/>
      <point x="286" y="515"/>
      <point x="344" y="428"/>
      <point x="344" y="277" type="curve" smooth="yes"/>
      <point x="344" y="117"/>
      <point x="288" y="25"/>
      <point x="191" y="25" type="curve" smooth="yes"/>
      <point x="110" y="25"/>
      <point x="76" y="98"/>
      <point x="76" y="269" type="curve"/>
      <point x="68" y="250" type="line"/>
      <point x="358" y="250" type="line"/>
      <point x="358" y="284" type="line"/>
      <point x="44" y="284" type="line"/>
      <point x="41" y="263"/>
      <point x="40" y="245"/>
      <point x="40" y="213" type="curve" smooth="yes"/>
      <point x="40" y="70"/>
      <point x="94" y="-9"/>
      <point x="191" y="-9" type="curve" smooth="yes"/>
      <point x="313" y="-9"/>
      <point x="380" y="94"/>
      <point x="380" y="282" type="curve" smooth="yes"/>
      <point x="380" y="450"/>
      <point x="308" y="549"/>
    </contour>
  </outline>
</glyph>
<glyph name="apostrophe" format="1">
  <advance width="181"/>
  <unicode hex="02BC"/>
  <outline>
    <contour>
      <point x="92" y="674" type="move" name="_apostrophe"/>
    </contour>
    <contour>
      <point x="75" y="808" type="line"/>
      <point x="75" y="580" type="line"/>
      <point x="85" y="580" type="line"/>
      <point x="109" y="804" type="line"/>
      <point x="109" y="808" type="line"/>
    </contour>
  </outline>
</glyph>
<glyph name="uni0311" format="1">
  <advance width="386"/>
  <unicode hex="0311"/>
  <outline>
    <contour>
      <point x="182" y="600" type="move" name="_top"/>
    </contour>
    <contour>
      <point x="56" y="623" type="curve"/>
      <point x="90" y="623" type="line"/>
      <point x="90" y="684"/>
      <point x="128" y="721"/>
      <point x="191" y="721" type="curve" smooth="yes"/>
      <point x="254" y="721"/>
      <point x="292" y="684"/>
      <point x="292" y="623" type="curve"/>
      <point x="326" y="623" type="line"/>
      <point x="326" y="705"/>
      <point x="275" y="755"/>
      <point x="191" y="755" type="curve" smooth="yes"/>
      <point x="107" y="755"/>
      <point x="56" y="705"/>
    </contour>
  </outline>
</glyph>
<glyph name="endash" format="1">
  <advance width="470"/>
  <unicode hex="2013"/>
  <outline>
    <contour>
      <point x="69" y="263" type="line"/>
      <point x="401" y="263" type="line"/>
      <point x="401" y="297" type="line"/>
      <point x="69" y="297" type="line"/>
    </contour>
  </outline>
</glyph>
<glyph name="quoteright" format="1">
  <advance width="160"/>
  <unicode hex="2019"/>
  <outline>
    <contour>
      <point x="63" y="801" type="line"/>
      <point x="74" y="767"/>
      <point x="79" y="736"/>
      <point x="79" y="708" type="curve" smooth="yes"/>
      <point x="79" y="655"/>
      <point x="66" y="590"/>
      <point x="46" y="538" type="curve"/>
      <point x="66" y="530" type="line"/>
      <point x="93" y="575"/>
      <point x="111" y="647"/>
      <point x="111" y="708" type="curve" smooth="yes"/>
      <point x="111" y="750"/>
      <point x="107" y="782"/>
      <point x="97" y="811" type="curve"/>
    </contour>
  </outline>
</glyph>
<glyph name="sevensuperior" format="1">
  <advance width="264"/>
  <unicode hex="2077"/>
  <outline>
    <contour>
      <point x="76" y="291" type="line"/>
      <point x="52" y="300" type="line"/>
      <point x="52" y="311" type="line"/>
      <point x="221" y="836" type="line"/>
      <point x="222" y="806" type="line"/>
      <point x="28" y="806" type="line"/>
      <point x="28" y="836" type="line"/>
      <point x="33" y="840" type="line"/>
      <point x="231" y="840" type="line"/>
      <point x="240" y="832" type="line"/>
      <point x="240" y="793" type="line"/>
      <point x="84" y="298" type="line"/>
    </contour>
  </outline>
</glyph>
<glyph name="oneinferior" format="1">
  <advance width="238"/>
  <unicode hex="2081"/>
  <outline>
    <contour>
      <point x="134" y="-100" type="line"/>
      <point x="168" y="-100" type="line"/>
      <point x="168" y="446" type="line"/>
      <point x="148" y="446" type="line"/>
      <point x="21" y="349" type="line"/>
      <point x="21" y="342" type="line"/>
      <point x="37" y="323" type="line"/>
      <point x="44" y="323" type="line"/>
      <point x="134" y="394" type="line"/>
    </contour>
  </outline>
</glyph>
<glyph name="fourinferior" format="1">
  <advance width="354"/>
  <unicode hex="2084"/>
  <outline>
    <contour>
      <point x="239" y="-100" type="line"/>
      <point x="273" y="-100" type="line"/>
      <point x="273" y="40" type="line"/>
      <point x="328" y="40" type="line"/>
      <point x="328" y="72" type="line"/>
      <point x="273" y="72" type="line"/>
      <point x="273" y="293" type="line"/>
      <point x="247" y="293" type="line"/>
      <point x="239" y="72" type="line"/>
      <point x="61" y="72" type="line"/>
      <point x="231" y="437" type="line"/>
      <point x="231" y="445" type="line"/>
      <point x="211" y="454" type="line"/>
      <point x="202" y="454" type="line"/>
      <point x="20" y="59" type="line"/>
      <point x="37" y="40" type="line"/>
      <point x="239" y="40" type="line"/>
    </contour>
  </outline>
</glyph>
<glyph name="colonmonetary" format="1">
  <advance width="488"/>
  <unicode hex="20A1"/>
  <outline>
    <contour>
      <point x="188" y="-52" type="line"/>
      <point x="223" y="-52" type="line"/>
      <point x="383" y="809" type="line"/>
      <point x="348" y="809" type="line"/>
    </contour>
    <component base="C"/>
  </outline>
</glyph>
<glyph name="uni20A9" format="1">
  <advance width="910"/>
  <unicode hex="20A9"/>
  <outline>
    <contour>
      <point x="50" y="266" type="line"/>
      <point x="860" y="266" type="line"/>
      <point x="860" y="300" type="line"/>
      <point x="50" y="300" type="line"/>
    </contour>
    <contour>
      <point x="50" y="437" type="line"/>
      <point x="860" y="437" type="line"/>
      <point x="860" y="471" type="line"/>
      <point x="50" y="471" type="line"/>
    </contour>
    <component base="W" xOffset="30"/>
  </outline>
</glyph>
<glyph name="product" format="1">
  <advance width="623"/>
  <unicode hex="220F"/>
  <outline>
    <contour>
      <point x="83" y="-101" type="line"/>
      <point x="117" y="-101" type="line"/>
      <point x="117" y="706" type="line"/>
      <point x="506" y="706" type="line"/>
      <point x="506" y="-101" type="line"/>
      <point x="540" y="-101" type="line"/>
      <point x="540" y="740" type="line"/>
      <point x="83" y="740" type="line"/>
    </contour>
  </outline>
</glyph>
<glyph name="commaaccent" format="1">
  <advance width="194"/>
  <unicode hex="F6C3"/>
  <outline>
    <contour>
      <point x="108" y="0" type="move" name="_bottom"/>
    </contour>
    <contour>
      <point x="52" y="-220" type="line"/>
      <point x="87" y="-220" type="line"/>
      <point x="139" y="-66" type="line"/>
      <point x="104" y="-66" type="line"/>
    </contour>
  </outline>
</glyph>
<glyph name="A.sc" format="1">
  <advance width="465"/>
  <note>
    520
  </note>
  <outline>
    <contour>
      <point x="518" y="0" type="move" name="ogonek"/>
    </contour>
    <contour>
      <point x="268" y="760" type="move" name="topUC"/>
    </contour>
    <contour>
      <point x="15" y="0" type="line"/>
      <point x="48" y="0" type="line"/>
      <point x="114" y="190" type="line"/>
      <point x="351" y="190" type="line"/>
      <point x="417" y="0" type="line"/>
      <point x="450" y="0" type="line"/>
      <point x="450" y="5" type="line"/>
      <point x="255" y="577" type="line"/>
      <point x="211" y="577" type="line"/>
      <point x="15" y="5" type="line"/>
    </contour>
    <contour>
      <point x="123" y="222" type="line"/>
      <point x="204" y="453" type="line"/>
      <point x="230" y="540" type="line"/>
      <point x="234" y="540" type="line"/>
      <point x="262" y="453" type="line"/>
      <point x="341" y="222" type="line"/>
    </contour>
  </outline>
</glyph>
<glyph name="Dcaron.sc" format="1">
  <advance width="502"/>
  <outline>
    <contour>
      <point x="169" y="-13" type="curve" smooth="yes"/>
      <point x="365" y="-13"/>
      <point x="454" y="80"/>
      <point x="454" y="288" type="curve" smooth="yes"/>
      <point x="454" y="490"/>
      <point x="373" y="585"/>
      <point x="202" y="585" type="curve" smooth="yes"/>
      <point x="167" y="585"/>
      <point x="126" y="580"/>
      <point x="76" y="572" type="curve"/>
      <point x="76" y="-7" type="line"/>
      <point x="106" y="-12"/>
      <point x="137" y="-13"/>
    </contour>
    <contour>
      <point x="173" y="20" type="curve" smooth="yes"/>
      <point x="155" y="20"/>
      <point x="135" y="21"/>
      <point x="110" y="24" type="curve"/>
      <point x="110" y="545" type="line"/>
      <point x="140" y="550"/>
      <point x="171" y="553"/>
      <point x="199" y="553" type="curve" smooth="yes"/>
      <point x="350" y="553"/>
      <point x="418" y="471"/>
      <point x="418" y="288" type="curve" smooth="yes"/>
      <point x="418" y="108"/>
      <point x="337" y="20"/>
    </contour>
    <contour>
      <point x="228" y="623" type="line"/>
      <point x="333" y="680" type="line"/>
      <point x="333" y="715" type="line"/>
      <point x="228" y="659" type="line"/>
      <point x="122" y="715" type="line"/>
      <point x="122" y="680" type="line"/>
    </contour>
  </outline>
</glyph>
<glyph name="Edotbelow.sc" format="1">
  <advance width="436"/>
  <outline>
    <contour>
      <point x="247" y="-128" type="curve" smooth="yes"/>
      <point x="265" y="-128"/>
      <point x="279" y="-120"/>
      <point x="279" y="-99" type="curve" smooth="yes"/>
      <point x="279" y="-78"/>
      <point x="265" y="-69"/>
      <point x="247" y="-69" type="curve" smooth="yes"/>
      <point x="228" y="-69"/>
      <point x="216" y="-77"/>
      <point x="216" y="-99" type="curve" smooth="yes"/>
      <point x="216" y="-120"/>
      <point x="228" y="-128"/>
    </contour>
    <contour>
      <point x="77" y="0" type="line"/>
      <point x="396" y="0" type="line"/>
      <point x="396" y="33" type="line"/>
      <point x="111" y="33" type="line"/>
      <point x="111" y="277" type="line"/>
      <point x="361" y="277" type="line"/>
      <point x="361" y="309" type="line"/>
      <point x="111" y="309" type="line"/>
      <point x="111" y="545" type="line"/>
      <point x="389" y="545" type="line"/>
      <point x="389" y="577" type="line"/>
      <point x="77" y="577" type="line"/>
    </contour>
  </outline>
</glyph>
<glyph name="Eng.sc" format="1">
  <advance width="567"/>
  <outline>
    <contour>
      <point x="420" y="-139" type="line"/>
      <point x="459" y="-83"/>
      <point x="491" y="-2"/>
      <point x="491" y="41" type="curve" smooth="yes"/>
      <point x="491" y="577" type="line"/>
      <point x="458" y="577" type="line"/>
      <point x="458" y="60" type="line"/>
      <point x="454" y="59" type="line"/>
      <point x="414" y="126" type="line"/>
      <point x="115" y="577" type="line"/>
      <point x="77" y="577" type="line"/>
      <point x="77" y="0" type="line"/>
      <point x="110" y="0" type="line"/>
      <point x="110" y="517" type="line"/>
      <point x="114" y="517" type="line"/>
      <point x="156" y="448" type="line"/>
      <point x="451" y="4" type="line"/>
      <point x="440" y="-36"/>
      <point x="418" y="-85"/>
      <point x="392" y="-131" type="curve"/>
    </contour>
  </outline>
</glyph>
<glyph name="Etilde.sc" format="1">
  <advance width="436"/>
  <outline>
    <contour>
      <point x="128" y="644" type="line"/>
      <point x="141" y="661"/>
      <point x="162" y="675"/>
      <point x="181" y="675" type="curve" smooth="yes"/>
      <point x="218" y="675"/>
      <point x="242" y="641"/>
      <point x="285" y="641" type="curve" smooth="yes"/>
      <point x="312" y="641"/>
      <point x="343" y="660"/>
      <point x="356" y="687" type="curve"/>
      <point x="333" y="703" type="line"/>
      <point x="322" y="684"/>
      <point x="305" y="672"/>
      <point x="286" y="672" type="curve" smooth="yes"/>
      <point x="249" y="672"/>
      <point x="226" y="705"/>
      <point x="182" y="705" type="curve" smooth="yes"/>
      <point x="155" y="705"/>
      <point x="125" y="684"/>
      <point x="108" y="663" type="curve"/>
    </contour>
    <contour>
      <point x="77" y="0" type="line"/>
      <point x="396" y="0" type="line"/>
      <point x="396" y="33" type="line"/>
      <point x="111" y="33" type="line"/>
      <point x="111" y="277" type="line"/>
      <point x="361" y="277" type="line"/>
      <point x="361" y="309" type="line"/>
      <point x="111" y="309" type="line"/>
      <point x="111" y="545" type="line"/>
      <point x="389" y="545" type="line"/>
      <point x="389" y="577" type="line"/>
      <point x="77" y="577" type="line"/>
    </contour>
  </outline>
</glyph>
<glyph name="Euro.tab" format="1">
  <advance width="480"/>
  <outline>
    <contour>
      <point x="38" y="436" type="line"/>
      <point x="112" y="436" type="line"/>
      <point x="111" y="415"/>
      <point x="110" y="392"/>
      <point x="110" y="369" type="curve" smooth="yes"/>
      <point x="110" y="346"/>
      <point x="110" y="324"/>
      <point x="112" y="303" type="curve"/>
      <point x="38" y="303" type="line"/>
      <point x="38" y="269" type="line"/>
      <point x="115" y="269" type="line"/>
      <point x="135" y="76"/>
      <point x="222" y="-7"/>
      <point x="394" y="-10" type="curve" smooth="yes"/>
      <point x="413" y="-10"/>
      <point x="422" y="-10"/>
      <point x="431" y="-9" type="curve"/>
      <point x="431" y="26" type="line"/>
      <point x="414" y="25"/>
      <point x="398" y="24"/>
      <point x="391" y="24" type="curve" smooth="yes"/>
      <point x="246" y="24"/>
      <point x="170" y="99"/>
      <point x="151" y="269" type="curve"/>
      <point x="320" y="269" type="line"/>
      <point x="340" y="303" type="line"/>
      <point x="148" y="303" type="line"/>
      <point x="146" y="324"/>
      <point x="146" y="345"/>
      <point x="146" y="369" type="curve" smooth="yes"/>
      <point x="146" y="393"/>
      <point x="146" y="415"/>
      <point x="148" y="436" type="curve"/>
      <point x="353" y="436" type="line"/>
      <point x="373" y="470" type="line"/>
      <point x="151" y="470" type="line"/>
      <point x="169" y="645"/>
      <point x="243" y="714"/>
      <point x="396" y="714" type="curve" smooth="yes"/>
      <point x="414" y="714"/>
      <point x="423" y="713"/>
      <point x="431" y="712" type="curve"/>
      <point x="446" y="746" type="line"/>
      <point x="428" y="747"/>
      <point x="417" y="748"/>
      <point x="392" y="748" type="curve" smooth="yes"/>
      <point x="217" y="748"/>
      <point x="133" y="669"/>
      <point x="114" y="470" type="curve"/>
      <point x="38" y="470" type="line"/>
    </contour>
  </outline>
</glyph>
<glyph name="F.sc" format="1">
  <advance width="407"/>
  <outline>
    <contour>
      <point x="77" y="0" type="line"/>
      <point x="111" y="0" type="line"/>
      <point x="111" y="276" type="line"/>
      <point x="358" y="276" type="line"/>
      <point x="358" y="308" type="line"/>
      <point x="111" y="308" type="line"/>
      <point x="111" y="545" type="line"/>
      <point x="373" y="545" type="line"/>
      <point x="373" y="577" type="line"/>
      <point x="77" y="577" type="line"/>
    </contour>
  </outline>
</glyph>
<glyph name="Icircumflex.sc" format="1">
  <advance width="188"/>
  <outline>
    <contour>
      <point x="77" y="0" type="line"/>
      <point x="111" y="0" type="line"/>
      <point x="111" y="577" type="line"/>
      <point x="77" y="577" type="line"/>
    </contour>
    <contour>
      <point x="-9" y="637" type="line"/>
      <point x="97" y="693" type="line"/>
      <point x="202" y="637" type="line"/>
      <point x="202" y="673" type="line"/>
      <point x="97" y="729" type="line"/>
      <point x="-9" y="673" type="line"/>
    </contour>
  </outline>
</glyph>
<glyph name="Lacute.sc" format="1">
  <advance width="349"/>
  <outline>
    <contour>
      <point x="77" y="0" type="line"/>
      <point x="335" y="0" type="line"/>
      <point x="335" y="33" type="line"/>
      <point x="111" y="33" type="line"/>
      <point x="111" y="577" type="line"/>
      <point x="77" y="577" type="line"/>
    </contour>
    <contour>
      <point x="119" y="613" type="line"/>
      <point x="193" y="714" type="line"/>
      <point x="155" y="714" type="line"/>
      <point x="89" y="615" type="line"/>
    </contour>
  </outline>
</glyph>
<glyph name="M.sc" format="1">
  <advance width="672"/>
  <outline>
    <contour>
      <point x="77" y="0" type="line"/>
      <point x="111" y="0" type="line"/>
      <point x="111" y="506" type="line"/>
      <point x="114" y="507" type="line"/>
      <point x="147" y="423" type="line"/>
      <point x="315" y="25" type="line"/>
      <point x="357" y="25" type="line"/>
      <point x="525" y="423" type="line"/>
      <point x="558" y="507" type="line"/>
      <point x="561" y="506" type="line"/>
      <point x="561" y="0" type="line"/>
      <point x="595" y="0" type="line"/>
      <point x="595" y="577" type="line"/>
      <point x="553" y="577" type="line"/>
      <point x="367" y="139" type="line"/>
      <point x="338" y="64" type="line"/>
      <point x="334" y="64" type="line"/>
      <point x="305" y="139" type="line"/>
      <point x="119" y="577" type="line"/>
      <point x="77" y="577" type="line"/>
    </contour>
  </outline>
</glyph>
<glyph name="Ncommaaccent.sc" format="1">
  <advance width="568"/>
  <outline>
    <contour>
      <point x="77" y="0" type="line"/>
      <point x="110" y="0" type="line"/>
      <point x="110" y="517" type="line"/>
      <point x="114" y="517" type="line"/>
      <point x="156" y="448" type="line"/>
      <point x="453" y="0" type="line"/>
      <point x="491" y="0" type="line"/>
      <point x="491" y="577" type="line"/>
      <point x="458" y="577" type="line"/>
      <point x="458" y="60" type="line"/>
      <point x="454" y="59" type="line"/>
      <point x="414" y="126" type="line"/>
      <point x="115" y="577" type="line"/>
      <point x="77" y="577" type="line"/>
    </contour>
    <contour>
      <point x="251" y="-172" type="line"/>
      <point x="285" y="-172" type="line"/>
      <point x="330" y="-52" type="line"/>
      <point x="295" y="-52" type="line"/>
    </contour>
  </outline>
</glyph>
<glyph name="Odblgrave.sc" format="1">
  <advance width="521"/>
  <outline>
    <contour>
      <point x="261" y="-8" type="curve" smooth="yes"/>
      <point x="402" y="-8"/>
      <point x="473" y="91"/>
      <point x="473" y="288" type="curve" smooth="yes"/>
      <point x="473" y="487"/>
      <point x="402" y="585"/>
      <point x="261" y="585" type="curve" smooth="yes"/>
      <point x="118" y="585"/>
      <point x="48" y="487"/>
      <point x="48" y="288" type="curve" smooth="yes"/>
      <point x="48" y="90"/>
      <point x="118" y="-8"/>
    </contour>
    <contour>
      <point x="261" y="25" type="curve" smooth="yes"/>
      <point x="137" y="25"/>
      <point x="82" y="105"/>
      <point x="82" y="288" type="curve" smooth="yes"/>
      <point x="82" y="471"/>
      <point x="138" y="552"/>
      <point x="261" y="552" type="curve" smooth="yes"/>
      <point x="381" y="552"/>
      <point x="439" y="467"/>
      <point x="439" y="288" type="curve" smooth="yes"/>
      <point x="439" y="107"/>
      <point x="383" y="25"/>
    </contour>
    <contour>
      <point x="222" y="623" type="line"/>
      <point x="155" y="714" type="line"/>
      <point x="119" y="714" type="line"/>
      <point x="193" y="612" type="line"/>
    </contour>
    <contour>
      <point x="332" y="623" type="line"/>
      <point x="265" y="714" type="line"/>
      <point x="229" y="714" type="line"/>
      <point x="303" y="612" type="line"/>
    </contour>
  </outline>
</glyph>
<glyph name="Odieresis.sc" format="1">
  <advance width="521"/>
  <outline>
    <contour>
      <point x="261" y="-8" type="curve" smooth="yes"/>
      <point x="402" y="-8"/>
      <point x="473" y="91"/>
      <point x="473" y="288" type="curve" smooth="yes"/>
      <point x="473" y="487"/>
      <point x="402" y="585"/>
      <point x="261" y="585" type="curve" smooth="yes"/>
      <point x="118" y="585"/>
      <point x="48" y="487"/>
      <point x="48" y="288" type="curve" smooth="yes"/>
      <point x="48" y="90"/>
      <point x="118" y="-8"/>
    </contour>
    <contour>
      <point x="261" y="25" type="curve" smooth="yes"/>
      <point x="137" y="25"/>
      <point x="82" y="105"/>
      <point x="82" y="288" type="curve" smooth="yes"/>
      <point x="82" y="471"/>
      <point x="138" y="552"/>
      <point x="261" y="552" type="curve" smooth="yes"/>
      <point x="381" y="552"/>
      <point x="439" y="467"/>
      <point x="439" y="288" type="curve" smooth="yes"/>
      <point x="439" y="107"/>
      <point x="383" y="25"/>
    </contour>
    <contour>
      <point x="187" y="635" type="curve" smooth="yes"/>
      <point x="202" y="635"/>
      <point x="215" y="643"/>
      <point x="215" y="661" type="curve" smooth="yes"/>
      <point x="215" y="679"/>
      <point x="202" y="688"/>
      <point x="187" y="688" type="curve" smooth="yes"/>
      <point x="171" y="688"/>
      <point x="159" y="680"/>
      <point x="159" y="661" type="curve" smooth="yes"/>
      <point x="159" y="643"/>
      <point x="171" y="635"/>
    </contour>
    <contour>
      <point x="336" y="635" type="curve" smooth="yes"/>
      <point x="350" y="635"/>
      <point x="364" y="643"/>
      <point x="364" y="661" type="curve" smooth="yes"/>
      <point x="364" y="679"/>
      <point x="350" y="688"/>
      <point x="336" y="688" type="curve" smooth="yes"/>
      <point x="320" y="688"/>
      <point x="308" y="680"/>
      <point x="308" y="661" type="curve" smooth="yes"/>
      <point x="308" y="643"/>
      <point x="320" y="635"/>
    </contour>
  </outline>
</glyph>
<glyph name="Rinvertedbreve.sc" format="1">
  <advance width="456"/>
  <outline>
    <contour>
      <point x="76" y="0" type="line"/>
      <point x="110" y="0" type="line"/>
      <point x="110" y="222" type="line"/>
      <point x="137" y="220"/>
      <point x="162" y="219"/>
      <point x="187" y="219" type="curve" smooth="yes"/>
      <point x="214" y="219"/>
      <point x="239" y="220"/>
      <point x="261" y="224" type="curve"/>
      <point x="380" y="0" type="line"/>
      <point x="417" y="0" type="line"/>
      <point x="293" y="231" type="line"/>
      <point x="374" y="254"/>
      <point x="411" y="309"/>
      <point x="411" y="403" type="curve" smooth="yes"/>
      <point x="411" y="529"/>
      <point x="345" y="586"/>
      <point x="198" y="586" type="curve" smooth="yes"/>
      <point x="161" y="586"/>
      <point x="121" y="582"/>
      <point x="76" y="573" type="curve"/>
    </contour>
    <contour>
      <point x="117" y="643" type="curve"/>
      <point x="149" y="643" type="line"/>
      <point x="149" y="691"/>
      <point x="181" y="719"/>
      <point x="235" y="719" type="curve" smooth="yes"/>
      <point x="288" y="719"/>
      <point x="320" y="691"/>
      <point x="320" y="643" type="curve"/>
      <point x="352" y="643" type="line"/>
      <point x="352" y="708"/>
      <point x="308" y="748"/>
      <point x="235" y="748" type="curve" smooth="yes"/>
      <point x="161" y="748"/>
      <point x="117" y="708"/>
    </contour>
    <contour>
      <point x="196" y="251" type="curve" smooth="yes"/>
      <point x="171" y="251"/>
      <point x="141" y="252"/>
      <point x="110" y="256" type="curve"/>
      <point x="110" y="546" type="line"/>
      <point x="148" y="551"/>
      <point x="179" y="554"/>
      <point x="204" y="554" type="curve" smooth="yes"/>
      <point x="323" y="554"/>
      <point x="377" y="507"/>
      <point x="377" y="403" type="curve" smooth="yes"/>
      <point x="377" y="297"/>
      <point x="321" y="251"/>
    </contour>
  </outline>
</glyph>
<glyph name="Udblgrave.sc" format="1">
  <advance width="547"/>
  <outline>
    <contour>
      <point x="274" y="-8" type="curve" smooth="yes"/>
      <point x="417" y="-8"/>
      <point x="476" y="63"/>
      <point x="476" y="227" type="curve" smooth="yes"/>
      <point x="476" y="577" type="line"/>
      <point x="442" y="577" type="line"/>
      <point x="442" y="227" type="line" smooth="yes"/>
      <point x="442" y="85"/>
      <point x="391" y="25"/>
      <point x="274" y="25" type="curve" smooth="yes"/>
      <point x="157" y="25"/>
      <point x="105" y="86"/>
      <point x="105" y="227" type="curve" smooth="yes"/>
      <point x="105" y="577" type="line"/>
      <point x="71" y="577" type="line"/>
      <point x="71" y="227" type="line" smooth="yes"/>
      <point x="71" y="63"/>
      <point x="131" y="-8"/>
    </contour>
    <contour>
      <point x="235" y="623" type="line"/>
      <point x="168" y="714" type="line"/>
      <point x="132" y="714" type="line"/>
      <point x="205" y="612" type="line"/>
    </contour>
    <contour>
      <point x="345" y="623" type="line"/>
      <point x="278" y="714" type="line"/>
      <point x="242" y="714" type="line"/>
      <point x="315" y="612" type="line"/>
    </contour>
  </outline>
</glyph>
<glyph name="X.sc" format="1">
  <advance width="471"/>
  <outline>
    <contour>
      <point x="18" y="0" type="line"/>
      <point x="58" y="0" type="line"/>
      <point x="225" y="247" type="line"/>
      <point x="234" y="261" type="line"/>
      <point x="235" y="261" type="line"/>
      <point x="244" y="247" type="line"/>
      <point x="412" y="0" type="line"/>
      <point x="453" y="0" type="line"/>
      <point x="258" y="289" type="line"/>
      <point x="451" y="577" type="line"/>
      <point x="411" y="577" type="line"/>
      <point x="246" y="333" type="line"/>
      <point x="237" y="318" type="line"/>
      <point x="236" y="318" type="line"/>
      <point x="227" y="333" type="line"/>
      <point x="60" y="577" type="line"/>
      <point x="20" y="577" type="line"/>
      <point x="213" y="291" type="line"/>
    </contour>
  </outline>
</glyph>
<glyph name="caron.cap" format="1">
  <advance width="277"/>
  <outline>
    <contour>
      <point x="139" y="760" type="move" name="_topUC"/>
    </contour>
    <contour>
      <point x="22" y="871" type="line"/>
      <point x="143" y="799" type="line"/>
      <point x="264" y="871" type="line"/>
      <point x="264" y="912" type="line"/>
      <point x="143" y="840" type="line"/>
      <point x="22" y="912" type="line"/>
    </contour>
  </outline>
</glyph>
<glyph name="divide.tab" format="1">
  <advance width="480"/>
  <outline>
    <contour>
      <point x="244" y="189" type="curve" smooth="yes"/>
      <point x="264" y="189"/>
      <point x="277" y="201"/>
      <point x="277" y="220" type="curve" smooth="yes"/>
      <point x="277" y="239"/>
      <point x="264" y="252"/>
      <point x="244" y="252" type="curve" smooth="yes"/>
      <point x="224" y="252"/>
      <point x="212" y="240"/>
      <point x="212" y="220" type="curve" smooth="yes"/>
      <point x="212" y="201"/>
      <point x="224" y="189"/>
    </contour>
    <contour>
      <point x="49" y="353" type="line"/>
      <point x="432" y="353" type="line"/>
      <point x="432" y="387" type="line"/>
      <point x="49" y="387" type="line"/>
    </contour>
    <contour>
      <point x="244" y="480" type="curve" smooth="yes"/>
      <point x="264" y="480"/>
      <point x="277" y="492"/>
      <point x="277" y="511" type="curve" smooth="yes"/>
      <point x="277" y="530"/>
      <point x="264" y="543"/>
      <point x="244" y="543" type="curve" smooth="yes"/>
      <point x="224" y="543"/>
      <point x="212" y="531"/>
      <point x="212" y="511" type="curve" smooth="yes"/>
      <point x="212" y="492"/>
      <point x="224" y="480"/>
    </contour>
  </outline>
</glyph>
<glyph name="eight.tf" format="1">
  <advance width="480"/>
  <outline>
    <contour>
      <point x="240" y="-3" type="curve" smooth="yes"/>
      <point x="348" y="-3"/>
      <point x="417" y="66"/>
      <point x="417" y="187" type="curve" smooth="yes"/>
      <point x="417" y="281"/>
      <point x="376" y="337"/>
      <point x="300" y="372" type="curve"/>
      <point x="362" y="401"/>
      <point x="400" y="459"/>
      <point x="400" y="560" type="curve" smooth="yes"/>
      <point x="400" y="684"/>
      <point x="342" y="749"/>
      <point x="241" y="749" type="curve" smooth="yes"/>
      <point x="138" y="749"/>
      <point x="80" y="681"/>
      <point x="80" y="564" type="curve" smooth="yes"/>
      <point x="80" y="479"/>
      <point x="110" y="422"/>
      <point x="178" y="385" type="curve"/>
      <point x="95" y="346"/>
      <point x="63" y="273"/>
      <point x="63" y="189" type="curve" smooth="yes"/>
      <point x="63" y="66"/>
      <point x="133" y="-3"/>
    </contour>
    <contour>
      <point x="240" y="31" type="curve" smooth="yes"/>
      <point x="155" y="31"/>
      <point x="96" y="86"/>
      <point x="96" y="194" type="curve" smooth="yes"/>
      <point x="96" y="275"/>
      <point x="129" y="331"/>
      <point x="213" y="369" type="curve"/>
      <point x="309" y="341"/>
      <point x="384" y="309"/>
      <point x="384" y="191" type="curve" smooth="yes"/>
      <point x="384" y="84"/>
      <point x="323" y="31"/>
    </contour>
    <contour>
      <point x="241" y="715" type="curve" smooth="yes"/>
      <point x="320" y="715"/>
      <point x="367" y="662"/>
      <point x="367" y="560" type="curve" smooth="yes"/>
      <point x="367" y="474"/>
      <point x="333" y="421"/>
      <point x="256" y="390" type="curve"/>
      <point x="158" y="422"/>
      <point x="113" y="468"/>
      <point x="113" y="563" type="curve" smooth="yes"/>
      <point x="113" y="661"/>
      <point x="161" y="715"/>
    </contour>
  </outline>
</glyph>
<glyph name="equal.tab" format="1">
  <advance width="480"/>
  <outline>
    <contour>
      <point x="51" y="236" type="line"/>
      <point x="429" y="236" type="line"/>
      <point x="429" y="270" type="line"/>
      <point x="51" y="270" type="line"/>
    </contour>
    <contour>
      <point x="51" y="447" type="line"/>
      <point x="429" y="447" type="line"/>
      <point x="429" y="481" type="line"/>
      <point x="51" y="481" type="line"/>
    </contour>
  </outline>
</glyph>
<glyph name="five.denominator" format="1">
  <advance width="298"/>
  <outline>
    <contour>
      <point x="117" y="-9" type="curve" smooth="yes"/>
      <point x="209" y="-9"/>
      <point x="260" y="51"/>
      <point x="260" y="157" type="curve" smooth="yes"/>
      <point x="260" y="268"/>
      <point x="213" y="312"/>
      <point x="85" y="315" type="curve"/>
      <point x="100" y="512" type="line"/>
      <point x="245" y="512" type="line"/>
      <point x="245" y="546" type="line"/>
      <point x="68" y="546" type="line"/>
      <point x="49" y="288" type="line"/>
      <point x="55" y="282" type="line"/>
      <point x="92" y="282" type="line" smooth="yes"/>
      <point x="186" y="282"/>
      <point x="225" y="245"/>
      <point x="225" y="157" type="curve" smooth="yes"/>
      <point x="225" y="73"/>
      <point x="186" y="25"/>
      <point x="117" y="25" type="curve" smooth="yes"/>
      <point x="99" y="25"/>
      <point x="80" y="28"/>
      <point x="54" y="34" type="curve"/>
      <point x="42" y="34" type="line"/>
      <point x="42" y="3" type="line"/>
      <point x="70" y="-5"/>
      <point x="94" y="-9"/>
    </contour>
  </outline>
</glyph>
<glyph name="grave.cap" format="1">
  <advance width="195"/>
  <outline>
    <contour>
      <point x="148" y="760" type="move" name="_topUC"/>
    </contour>
    <contour>
      <point x="160" y="798" type="line"/>
      <point x="81" y="910" type="line"/>
      <point x="43" y="910" type="line"/>
      <point x="128" y="784" type="line"/>
    </contour>
  </outline>
</glyph>
<glyph name="hungarumlaut.cap" format="1">
  <advance width="341"/>
  <outline>
    <contour>
      <point x="140" y="760" type="move" name="_topUC"/>
    </contour>
    <contour>
      <point x="74" y="784" type="line"/>
      <point x="159" y="910" type="line"/>
      <point x="121" y="910" type="line"/>
      <point x="42" y="798" type="line"/>
    </contour>
    <contour>
      <point x="201" y="784" type="line"/>
      <point x="286" y="910" type="line"/>
      <point x="248" y="910" type="line"/>
      <point x="169" y="798" type="line"/>
    </contour>
  </outline>
</glyph>
<glyph name="macron.cap" format="1">
  <advance width="256"/>
  <outline>
    <contour>
      <point x="137" y="760" type="move" name="_topUC"/>
    </contour>
    <contour>
      <point x="23" y="842" type="line"/>
      <point x="232" y="842" type="line"/>
      <point x="232" y="876" type="line"/>
      <point x="23" y="876" type="line"/>
    </contour>
  </outline>
</glyph>
<glyph name="one.osf" format="1">
  <advance width="290"/>
  <outline>
    <contour>
      <point x="181" y="0" type="line"/>
      <point x="215" y="0" type="line"/>
      <point x="215" y="566" type="line"/>
      <point x="196" y="566" type="line"/>
      <point x="26" y="465" type="line"/>
      <point x="26" y="461" type="line"/>
      <point x="44" y="439" type="line"/>
      <point x="49" y="439" type="line"/>
      <point x="178" y="514" type="line"/>
      <point x="181" y="514" type="line"/>
    </contour>
  </outline>
</glyph>
<glyph name="percent.tab" format="1">
  <advance width="480"/>
  <note>
    450
  </note>
  <outline>
    <contour>
      <point x="87" y="288" type="curve" smooth="yes"/>
      <point x="159" y="288"/>
      <point x="195" y="367"/>
      <point x="195" y="519" type="curve" smooth="yes"/>
      <point x="195" y="670"/>
      <point x="159" y="750"/>
      <point x="87" y="750" type="curve" smooth="yes"/>
      <point x="15" y="750"/>
      <point x="-23" y="670"/>
      <point x="-23" y="519" type="curve" smooth="yes"/>
      <point x="-23" y="366"/>
      <point x="15" y="288"/>
    </contour>
    <contour>
      <point x="87" y="322" type="curve" smooth="yes"/>
      <point x="34" y="322"/>
      <point x="7" y="388"/>
      <point x="7" y="519" type="curve" smooth="yes"/>
      <point x="7" y="647"/>
      <point x="35" y="716"/>
      <point x="87" y="716" type="curve" smooth="yes"/>
      <point x="137" y="716"/>
      <point x="165" y="647"/>
      <point x="165" y="519" type="curve" smooth="yes"/>
      <point x="165" y="389"/>
      <point x="139" y="322"/>
    </contour>
    <contour>
      <point x="394" y="-14" type="curve" smooth="yes"/>
      <point x="466" y="-14"/>
      <point x="503" y="65"/>
      <point x="503" y="217" type="curve" smooth="yes"/>
      <point x="503" y="368"/>
      <point x="466" y="448"/>
      <point x="394" y="448" type="curve" smooth="yes"/>
      <point x="322" y="448"/>
      <point x="285" y="368"/>
      <point x="285" y="217" type="curve" smooth="yes"/>
      <point x="285" y="64"/>
      <point x="322" y="-14"/>
    </contour>
    <contour>
      <point x="394" y="20" type="curve" smooth="yes"/>
      <point x="341" y="20"/>
      <point x="315" y="86"/>
      <point x="315" y="217" type="curve" smooth="yes"/>
      <point x="315" y="345"/>
      <point x="343" y="414"/>
      <point x="394" y="414" type="curve" smooth="yes"/>
      <point x="445" y="414"/>
      <point x="472" y="345"/>
      <point x="472" y="217" type="curve" smooth="yes"/>
      <point x="472" y="87"/>
      <point x="446" y="20"/>
    </contour>
    <contour>
      <point x="121" y="0" type="line"/>
      <point x="153" y="0" type="line"/>
      <point x="352" y="740" type="line"/>
      <point x="320" y="740" type="line"/>
    </contour>
  </outline>
</glyph>
<glyph name="plusminus.tab" format="1">
  <advance width="480"/>
  <outline>
    <contour>
      <point x="52" y="413" type="line"/>
      <point x="222" y="413" type="line"/>
      <point x="222" y="238" type="line"/>
      <point x="257" y="238" type="line"/>
      <point x="257" y="413" type="line"/>
      <point x="427" y="413" type="line"/>
      <point x="427" y="447" type="line"/>
      <point x="257" y="447" type="line"/>
      <point x="257" y="622" type="line"/>
      <point x="222" y="622" type="line"/>
      <point x="222" y="447" type="line"/>
      <point x="52" y="447" type="line"/>
    </contour>
    <contour>
      <point x="52" y="113" type="line"/>
      <point x="427" y="113" type="line"/>
      <point x="427" y="147" type="line"/>
      <point x="52" y="147" type="line"/>
    </contour>
  </outline>
</glyph>
<glyph name="three.osf" format="1">
  <advance width="373"/>
  <outline>
    <contour>
      <point x="140" y="-170" type="curve" smooth="yes"/>
      <point x="260" y="-170"/>
      <point x="333" y="-98"/>
      <point x="333" y="21" type="curve" smooth="yes"/>
      <point x="333" y="132"/>
      <point x="288" y="198"/>
      <point x="196" y="221" type="curve"/>
      <point x="196" y="225" type="line"/>
      <point x="270" y="246"/>
      <point x="313" y="310"/>
      <point x="313" y="401" type="curve" smooth="yes"/>
      <point x="313" y="517"/>
      <point x="249" y="587"/>
      <point x="143" y="587" type="curve" smooth="yes"/>
      <point x="113" y="587"/>
      <point x="78" y="582"/>
      <point x="38" y="571" type="curve"/>
      <point x="47" y="541" type="line"/>
      <point x="57" y="541" type="line"/>
      <point x="89" y="550"/>
      <point x="117" y="553"/>
      <point x="141" y="553" type="curve" smooth="yes"/>
      <point x="230" y="553"/>
      <point x="279" y="499"/>
      <point x="279" y="401" type="curve" smooth="yes"/>
      <point x="279" y="302"/>
      <point x="212" y="239"/>
      <point x="106" y="239" type="curve" smooth="yes"/>
      <point x="93" y="239" type="line"/>
      <point x="93" y="205" type="line"/>
      <point x="105" y="205" type="line" smooth="yes"/>
      <point x="231" y="205"/>
      <point x="299" y="140"/>
      <point x="299" y="21" type="curve" smooth="yes"/>
      <point x="299" y="-78"/>
      <point x="238" y="-138"/>
      <point x="140" y="-138" type="curve" smooth="yes"/>
      <point x="109" y="-138"/>
      <point x="78" y="-135"/>
      <point x="52" y="-126" type="curve"/>
      <point x="44" y="-126" type="line"/>
      <point x="44" y="-157" type="line"/>
      <point x="75" y="-166"/>
      <point x="109" y="-170"/>
    </contour>
  </outline>
</glyph>
<glyph name="three.tosf" format="1">
  <advance width="480"/>
  <outline>
    <contour>
      <point x="188" y="-170" type="curve" smooth="yes"/>
      <point x="321" y="-170"/>
      <point x="403" y="-98"/>
      <point x="403" y="21" type="curve" smooth="yes"/>
      <point x="403" y="132"/>
      <point x="352" y="198"/>
      <point x="249" y="221" type="curve"/>
      <point x="249" y="225" type="line"/>
      <point x="332" y="246"/>
      <point x="380" y="310"/>
      <point x="380" y="401" type="curve" smooth="yes"/>
      <point x="380" y="517"/>
      <point x="309" y="587"/>
      <point x="192" y="587" type="curve" smooth="yes"/>
      <point x="158" y="587"/>
      <point x="119" y="582"/>
      <point x="75" y="571" type="curve"/>
      <point x="85" y="541" type="line"/>
      <point x="96" y="541" type="line"/>
      <point x="132" y="550"/>
      <point x="163" y="553"/>
      <point x="190" y="553" type="curve" smooth="yes"/>
      <point x="290" y="553"/>
      <point x="346" y="499"/>
      <point x="346" y="401" type="curve" smooth="yes"/>
      <point x="346" y="302"/>
      <point x="269" y="239"/>
      <point x="150" y="239" type="curve" smooth="yes"/>
      <point x="136" y="239" type="line"/>
      <point x="136" y="205" type="line"/>
      <point x="149" y="205" type="line" smooth="yes"/>
      <point x="291" y="205"/>
      <point x="368" y="140"/>
      <point x="368" y="21" type="curve" smooth="yes"/>
      <point x="368" y="-78"/>
      <point x="299" y="-138"/>
      <point x="189" y="-138" type="curve" smooth="yes"/>
      <point x="154" y="-138"/>
      <point x="120" y="-135"/>
      <point x="90" y="-126" type="curve"/>
      <point x="81" y="-126" type="line"/>
      <point x="81" y="-157" type="line"/>
      <point x="116" y="-166"/>
      <point x="154" y="-170"/>
    </contour>
  </outline>
</glyph>
<glyph name="two.numerator" format="1">
  <advance width="316"/>
  <outline>
    <contour>
      <point x="37" y="200" type="line"/>
      <point x="275" y="200" type="line"/>
      <point x="275" y="234" type="line"/>
      <point x="71" y="234" type="line"/>
      <point x="71" y="266" type="line"/>
      <point x="71" y="342"/>
      <point x="100" y="394"/>
      <point x="173" y="457" type="curve"/>
      <point x="246" y="518"/>
      <point x="274" y="563"/>
      <point x="274" y="626" type="curve" smooth="yes"/>
      <point x="274" y="709"/>
      <point x="231" y="753"/>
      <point x="150" y="753" type="curve" smooth="yes"/>
      <point x="122" y="753"/>
      <point x="90" y="747"/>
      <point x="49" y="732" type="curve"/>
      <point x="58" y="699" type="line"/>
      <point x="102" y="713"/>
      <point x="129" y="719"/>
      <point x="150" y="719" type="curve" smooth="yes"/>
      <point x="208" y="719"/>
      <point x="240" y="686"/>
      <point x="240" y="626" type="curve" smooth="yes"/>
      <point x="240" y="575"/>
      <point x="215" y="535"/>
      <point x="151" y="483" type="curve" smooth="yes"/>
      <point x="71" y="417"/>
      <point x="37" y="353"/>
      <point x="37" y="266" type="curve"/>
    </contour>
  </outline>
</glyph>
<glyph name="uni0162.sc" format="1">
  <advance width="400"/>
  <outline>
    <contour>
      <point x="155" y="-172" type="curve" smooth="yes"/>
      <point x="214" y="-172"/>
      <point x="245" y="-142"/>
      <point x="245" y="-86" type="curve" smooth="yes"/>
      <point x="245" y="-60"/>
      <point x="233" y="-31"/>
      <point x="215" y="0" type="curve"/>
      <point x="217" y="0" type="line"/>
      <point x="217" y="544" type="line"/>
      <point x="384" y="544" type="line"/>
      <point x="384" y="577" type="line"/>
      <point x="16" y="577" type="line"/>
      <point x="16" y="544" type="line"/>
      <point x="183" y="544" type="line"/>
      <point x="183" y="0" type="line"/>
      <point x="185" y="0" type="line"/>
      <point x="202" y="-28"/>
      <point x="213" y="-59"/>
      <point x="213" y="-85" type="curve" smooth="yes"/>
      <point x="213" y="-123"/>
      <point x="194" y="-141"/>
      <point x="153" y="-141" type="curve" smooth="yes"/>
      <point x="137" y="-141"/>
      <point x="119" y="-138"/>
      <point x="103" y="-132" type="curve"/>
      <point x="103" y="-164" type="line"/>
      <point x="119" y="-169"/>
      <point x="138" y="-172"/>
    </contour>
  </outline>
</glyph>
<glyph name="zero.denominator" format="1">
  <advance width="393"/>
  <note>
    546
  </note>
  <outline>
    <contour>
      <point x="197" y="-7" type="curve"/>
      <point x="298" y="-7"/>
      <point x="350" y="89"/>
      <point x="350" y="273" type="curve" smooth="yes"/>
      <point x="350" y="457"/>
      <point x="298" y="554"/>
      <point x="197" y="554" type="curve" smooth="yes"/>
      <point x="96" y="554"/>
      <point x="43" y="457"/>
      <point x="43" y="273" type="curve" smooth="yes"/>
      <point x="43" y="88"/>
      <point x="96" y="-7"/>
    </contour>
    <contour>
      <point x="197" y="27" type="curve"/>
      <point x="117" y="27"/>
      <point x="77" y="110"/>
      <point x="77" y="273" type="curve" smooth="yes"/>
      <point x="77" y="433"/>
      <point x="119" y="520"/>
      <point x="197" y="520" type="curve" smooth="yes"/>
      <point x="274" y="520"/>
      <point x="316" y="433"/>
      <point x="316" y="273" type="curve" smooth="yes"/>
      <point x="316" y="111"/>
      <point x="276" y="27"/>
    </contour>
  </outline>
</glyph>
